<?xml version="1.0" encoding="iso-8859-1"?>
<!-- Generator: Adobe Illustrator 19.0.0, SVG Export Plug-In . SVG Version: 6.00 Build 0)  -->
<svg version="1.1" id="Layer_1" xmlns="http://www.w3.org/2000/svg" xmlns:xlink="http://www.w3.org/1999/xlink" x="0px" y="0px"
	 viewBox="0 0 512 512" style="enable-background:new 0 0 512 512;" xml:space="preserve">
<g>
	<g>
		<path d="M343.494,87.494c-28.082,0-54.555,6.879-77.84,19.03l-2.729-0.262l-62.014-51.173l-62.014,51.171l-80.051,7.674
			l-7.675,80.052L0,256l51.172,62.017l7.672,80.05l80.052,7.674l62.016,51.171l62.014-51.171l2.731-0.262
			c23.284,12.149,49.755,19.028,77.837,19.028C436.558,424.506,512,349.063,512,256S436.558,87.494,343.494,87.494z
			 M200.911,406.496l-37.265-30.751l-9.185-7.579l-11.855-1.137l-48.115-4.612l-4.612-48.112l-1.137-11.854l-7.579-9.186L50.414,256
			l30.751-37.266l7.579-9.185l1.137-11.854l4.613-48.116l48.114-4.612l11.854-1.137l9.185-7.579l37.263-30.75l30.218,24.935
			c-10.98,9.833-20.661,21.085-28.759,33.468c-0.486-0.009-0.971-0.023-1.458-0.023c-50.875,0-92.116,41.241-92.116,92.115
			c0,50.873,41.241,92.115,92.116,92.115c0.487,0,0.971-0.018,1.456-0.026c8.099,12.385,17.78,23.638,28.763,33.472L200.911,406.496
			z M182.516,305.949c-20.313-7.504-34.834-27.062-34.834-49.949s14.521-42.445,34.834-49.949
			c-4.892,15.784-7.528,32.558-7.528,49.949S177.624,290.165,182.516,305.949z M343.494,385.62
			c-71.473,0-129.62-58.146-129.62-129.62s58.148-129.62,129.62-129.62s129.62,58.146,129.62,129.62S414.966,385.62,343.494,385.62z
			"/>
	</g>
</g>
<g>
	<g>
		<circle cx="367.564" cy="320.81" r="38.886"/>
	</g>
</g>
<g>
	<g>
		<circle cx="434.228" cy="243.038" r="25.52"/>
	</g>
</g>
<g>
	<g>
		<circle cx="259.24" cy="236.557" r="19.443"/>
	</g>
</g>
<g>
	<g>
		<circle cx="317.57" cy="178.228" r="25.924"/>
	</g>
</g>
<g>
</g>
<g>
</g>
<g>
</g>
<g>
</g>
<g>
</g>
<g>
</g>
<g>
</g>
<g>
</g>
<g>
</g>
<g>
</g>
<g>
</g>
<g>
</g>
<g>
</g>
<g>
</g>
<g>
</g>
</svg>
